<svg width="452" height="234" viewBox="0 0 452 234" fill="none" xmlns="http://www.w3.org/2000/svg">
<rect x="170.449" y="1.02606" width="102.376" height="162.493" fill="#FFFF00"/>
<path d="M222.578 114.549L103.944 114.549C84.6738 114.549 69.052 98.9269 69.052 79.6565C69.052 60.386 84.6738 44.7642 103.944 44.7642L222.578 44.7642V114.549Z" fill="#FF0000" fill-opacity="0.34"/>
<path d="M221.784 114.549L61.2791 114.549C42.0086 114.549 26.3869 98.9269 26.3869 79.6565C26.3869 60.386 42.0087 44.7642 61.2791 44.7642L221.784 44.7642V114.549Z" fill="#FF0000" fill-opacity="0.33"/>
<path d="M222.526 114.549L82.9566 114.549C63.6862 114.549 48.0644 98.9269 48.0644 79.6565C48.0644 60.386 63.6862 44.7642 82.9566 44.7642L222.526 44.7642V114.549Z" fill="#FF0000" fill-opacity="0.33"/>
<path d="M221.931 70.2961L124.01 70.2961C104.863 70.2961 89.3403 54.7739 89.3403 35.6262C89.3403 16.4786 104.863 0.956329 124.01 0.956329L221.931 0.956329V70.2961Z" fill="#FF7F00" fill-opacity="0.34"/>
<path d="M221.931 70.2961L103.075 70.2961C83.9271 70.2961 68.4049 54.7739 68.4049 35.6262C68.4049 16.4786 83.9271 0.956329 103.075 0.956329L221.931 0.956329V70.2961Z" fill="#FF7F00" fill-opacity="0.33"/>
<path d="M221.931 70.2961L82.1394 70.2961C62.9917 70.2961 47.4695 54.7739 47.4695 35.6262C47.4695 16.4786 62.9917 0.956329 82.1394 0.956329L221.931 0.956329V70.2961Z" fill="#FF7F00" fill-opacity="0.33"/>
<path d="M221.655 95.2573L357.734 95.2573C377.005 95.2573 392.627 110.879 392.627 130.15C392.627 149.42 377.005 165.042 357.734 165.042L221.655 165.042L221.655 95.2573Z" fill="#00FF00" fill-opacity="0.34"/>
<path d="M221.188 95.2573L391.461 95.2573C410.732 95.2573 426.354 110.879 426.354 130.15C426.354 149.42 410.732 165.042 391.461 165.042L221.188 165.042L221.188 95.2573Z" fill="#00FF00" fill-opacity="0.33"/>
<path d="M221.188 95.2573L417.107 95.2573C436.377 95.2573 451.999 110.879 451.999 130.15C451.999 149.42 436.377 165.042 417.107 165.042L221.188 165.042L221.188 95.2573Z" fill="#00FF00" fill-opacity="0.33"/>
<path d="M221.188 44.7639L343.477 44.7639C362.747 44.7639 378.369 60.3857 378.369 79.6563C378.369 98.9268 362.747 114.549 343.477 114.549L221.188 114.549L221.188 44.7639Z" fill="#0000FF" fill-opacity="0.34"/>
<path d="M221.188 44.7639L364.911 44.7639C384.181 44.7639 399.803 60.3857 399.803 79.6563C399.803 98.9268 384.181 114.549 364.911 114.549L221.188 114.549L221.188 44.7639Z" fill="#0000FF" fill-opacity="0.33"/>
<path d="M221.188 44.7639L386.345 44.7639C405.615 44.7639 421.237 60.3857 421.237 79.6562C421.237 98.9268 405.615 114.549 386.345 114.549L221.188 114.549L221.188 44.7639Z" fill="#0000FF" fill-opacity="0.33"/>
<path d="M221.187 0.954524L318.886 0.954524C338.157 0.954524 353.778 16.5764 353.778 35.8469C353.778 55.1174 338.157 70.7392 318.886 70.7392H221.187V0.954524Z" fill="#4B0082" fill-opacity="0.33"/>
<path d="M221.187 1.19908L339.944 1.19908C359.147 1.19908 374.714 16.7662 374.714 35.9692C374.714 55.1721 359.147 70.7392 339.944 70.7392H221.187V1.19908Z" fill="#4B0082" fill-opacity="0.33"/>
<path d="M221.187 0.954559L360.757 0.954559C380.027 0.954559 395.649 16.5764 395.649 35.8469C395.649 55.1174 380.027 70.7393 360.757 70.7393H221.187V0.954559Z" fill="#4B0082" fill-opacity="0.34"/>
<path d="M220.735 165.042L96.6263 165.042C77.3558 165.042 61.734 149.42 61.734 130.15C61.734 110.879 77.3558 95.2574 96.6264 95.2574L220.735 95.2574L220.735 165.042Z" fill="#9400D3" fill-opacity="0.33"/>
<path d="M220.903 165.042L66.9815 165.042C47.711 165.042 32.0892 149.42 32.0892 130.15C32.0892 110.879 47.711 95.2574 66.9815 95.2574L220.903 95.2574L220.903 165.042Z" fill="#9400D3" fill-opacity="0.34"/>
<path d="M220.626 165.042L36.8917 165.042C17.6212 165.042 1.99936 149.42 1.99936 130.15C1.99935 110.879 17.6212 95.2574 36.8917 95.2574L220.626 95.2574L220.626 165.042Z" fill="#9400D3" fill-opacity="0.33"/>
<path d="M5.68294 198.766H0.306941V195.598H14.9469V198.766H9.57094V212.398H5.68294V198.766ZM32.4469 195.598V212.398H28.5589V205.51H20.9269V212.398H17.0389V195.598H20.9269V202.222H28.5589V195.598H32.4469ZM49.4297 209.278V212.398H36.4217V195.598H49.1177V198.718H40.2857V202.366H48.0857V205.39H40.2857V209.278H49.4297ZM59.3201 195.598H66.9521C68.7761 195.598 70.3841 195.95 71.7761 196.654C73.1841 197.342 74.2721 198.318 75.0401 199.582C75.8241 200.846 76.2161 202.318 76.2161 203.998C76.2161 205.678 75.8241 207.15 75.0401 208.414C74.2721 209.678 73.1841 210.662 71.7761 211.366C70.3841 212.054 68.7761 212.398 66.9521 212.398H59.3201V195.598ZM66.7601 209.206C68.4401 209.206 69.7761 208.742 70.7681 207.814C71.7761 206.87 72.2801 205.598 72.2801 203.998C72.2801 202.398 71.7761 201.134 70.7681 200.206C69.7761 199.262 68.4401 198.79 66.7601 198.79H63.2081V209.206H66.7601ZM87.2843 212.686C85.5403 212.686 83.9643 212.31 82.5563 211.558C81.1643 210.806 80.0683 209.774 79.2683 208.462C78.4843 207.134 78.0923 205.646 78.0923 203.998C78.0923 202.35 78.4843 200.87 79.2683 199.558C80.0683 198.23 81.1643 197.19 82.5563 196.438C83.9643 195.686 85.5403 195.31 87.2843 195.31C89.0283 195.31 90.5963 195.686 91.9883 196.438C93.3803 197.19 94.4763 198.23 95.2763 199.558C96.0763 200.87 96.4763 202.35 96.4763 203.998C96.4763 205.646 96.0763 207.134 95.2763 208.462C94.4763 209.774 93.3803 210.806 91.9883 211.558C90.5963 212.31 89.0283 212.686 87.2843 212.686ZM87.2843 209.374C88.2763 209.374 89.1723 209.15 89.9723 208.702C90.7723 208.238 91.3963 207.598 91.8443 206.782C92.3083 205.966 92.5403 205.038 92.5403 203.998C92.5403 202.958 92.3083 202.03 91.8443 201.214C91.3963 200.398 90.7723 199.766 89.9723 199.318C89.1723 198.854 88.2763 198.622 87.2843 198.622C86.2923 198.622 85.3963 198.854 84.5963 199.318C83.7963 199.766 83.1643 200.398 82.7003 201.214C82.2523 202.03 82.0283 202.958 82.0283 203.998C82.0283 205.038 82.2523 205.966 82.7003 206.782C83.1643 207.598 83.7963 208.238 84.5963 208.702C85.3963 209.15 86.2923 209.374 87.2843 209.374ZM114.686 212.398L114.662 202.318L109.718 210.622H107.966L103.046 202.534V212.398H99.3983V195.598H102.614L108.902 206.038L115.094 195.598H118.286L118.334 212.398H114.686ZM123.496 207.934C124.168 207.934 124.72 208.15 125.152 208.582C125.584 208.998 125.8 209.55 125.8 210.238C125.8 210.558 125.76 210.878 125.68 211.198C125.6 211.518 125.424 211.998 125.152 212.638L123.784 216.094H121.408L122.464 212.278C122.064 212.118 121.744 211.862 121.504 211.51C121.28 211.142 121.168 210.718 121.168 210.238C121.168 209.55 121.384 208.998 121.816 208.582C122.264 208.15 122.824 207.934 123.496 207.934ZM138.494 212.686C137.358 212.686 136.31 212.478 135.35 212.062C134.406 211.63 133.63 211.022 133.022 210.238L135.182 207.646C136.094 208.878 137.134 209.494 138.302 209.494C139.886 209.494 140.678 208.566 140.678 206.71V198.718H134.774V195.598H144.542V206.494C144.542 208.558 144.03 210.11 143.006 211.15C141.982 212.174 140.478 212.686 138.494 212.686ZM159.095 208.798H151.295L149.807 212.398H145.823L153.311 195.598H157.151L164.663 212.398H160.583L159.095 208.798ZM157.871 205.846L155.207 199.414L152.543 205.846H157.871ZM181.644 195.598L174.372 212.398H170.532L163.284 195.598H167.484L172.596 207.598L177.78 195.598H181.644ZM193.548 208.798H185.748L184.26 212.398H180.276L187.764 195.598H191.604L199.116 212.398H195.036L193.548 208.798ZM192.324 205.846L189.66 199.414L186.996 205.846H192.324ZM206.379 212.686C205.051 212.686 203.763 212.51 202.515 212.158C201.283 211.79 200.291 211.318 199.539 210.742L200.859 207.814C201.579 208.342 202.435 208.766 203.427 209.086C204.419 209.406 205.411 209.566 206.403 209.566C207.507 209.566 208.323 209.406 208.851 209.086C209.379 208.75 209.643 208.31 209.643 207.766C209.643 207.366 209.483 207.038 209.163 206.782C208.859 206.51 208.459 206.294 207.963 206.134C207.483 205.974 206.827 205.798 205.995 205.606C204.715 205.302 203.667 204.998 202.851 204.694C202.035 204.39 201.331 203.902 200.739 203.23C200.163 202.558 199.875 201.662 199.875 200.542C199.875 199.566 200.139 198.686 200.667 197.902C201.195 197.102 201.987 196.47 203.043 196.006C204.115 195.542 205.419 195.31 206.955 195.31C208.027 195.31 209.075 195.438 210.099 195.694C211.123 195.95 212.019 196.318 212.787 196.798L211.587 199.75C210.035 198.87 208.483 198.43 206.931 198.43C205.843 198.43 205.035 198.606 204.507 198.958C203.995 199.31 203.739 199.774 203.739 200.35C203.739 200.926 204.035 201.358 204.627 201.646C205.235 201.918 206.155 202.19 207.387 202.462C208.667 202.766 209.715 203.07 210.531 203.374C211.347 203.678 212.043 204.158 212.619 204.814C213.211 205.47 213.507 206.358 213.507 207.478C213.507 208.438 213.235 209.318 212.691 210.118C212.163 210.902 211.363 211.526 210.291 211.99C209.219 212.454 207.915 212.686 206.379 212.686ZM224.204 212.686C222.492 212.686 220.94 212.318 219.548 211.582C218.172 210.83 217.084 209.798 216.284 208.486C215.5 207.158 215.108 205.662 215.108 203.998C215.108 202.334 215.5 200.846 216.284 199.534C217.084 198.206 218.172 197.174 219.548 196.438C220.94 195.686 222.5 195.31 224.228 195.31C225.684 195.31 226.996 195.566 228.164 196.078C229.348 196.59 230.34 197.326 231.14 198.286L228.644 200.59C227.508 199.278 226.1 198.622 224.42 198.622C223.38 198.622 222.452 198.854 221.636 199.318C220.82 199.766 220.18 200.398 219.716 201.214C219.268 202.03 219.044 202.958 219.044 203.998C219.044 205.038 219.268 205.966 219.716 206.782C220.18 207.598 220.82 208.238 221.636 208.702C222.452 209.15 223.38 209.374 224.42 209.374C226.1 209.374 227.508 208.71 228.644 207.382L231.14 209.686C230.34 210.662 229.348 211.406 228.164 211.918C226.98 212.43 225.66 212.686 224.204 212.686ZM244.469 212.398L241.229 207.718H241.037H237.653V212.398H233.765V195.598H241.037C242.525 195.598 243.813 195.846 244.901 196.342C246.005 196.838 246.853 197.542 247.445 198.454C248.037 199.366 248.333 200.446 248.333 201.694C248.333 202.942 248.029 204.022 247.421 204.934C246.829 205.83 245.981 206.518 244.877 206.998L248.645 212.398H244.469ZM244.397 201.694C244.397 200.75 244.093 200.03 243.485 199.534C242.877 199.022 241.989 198.766 240.821 198.766H237.653V204.622H240.821C241.989 204.622 242.877 204.366 243.485 203.854C244.093 203.342 244.397 202.622 244.397 201.694ZM251.414 195.598H255.302V212.398H251.414V195.598ZM266.561 195.598C268.049 195.598 269.337 195.846 270.425 196.342C271.529 196.838 272.377 197.542 272.969 198.454C273.561 199.366 273.857 200.446 273.857 201.694C273.857 202.926 273.561 204.006 272.969 204.934C272.377 205.846 271.529 206.55 270.425 207.046C269.337 207.526 268.049 207.766 266.561 207.766H263.177V212.398H259.289V195.598H266.561ZM266.345 204.598C267.513 204.598 268.401 204.35 269.009 203.854C269.617 203.342 269.921 202.622 269.921 201.694C269.921 200.75 269.617 200.03 269.009 199.534C268.401 199.022 267.513 198.766 266.345 198.766H263.177V204.598H266.345ZM279.644 198.766H274.268V195.598H288.908V198.766H283.532V212.398H279.644V198.766ZM308.861 208.798H301.061L299.573 212.398H295.589L303.077 195.598H306.917L314.429 212.398H310.349L308.861 208.798ZM307.637 205.846L304.973 199.414L302.309 205.846H307.637ZM331.58 195.598V212.398H328.388L320.012 202.198V212.398H316.172V195.598H319.388L327.74 205.798V195.598H331.58ZM335.555 195.598H343.187C345.011 195.598 346.619 195.95 348.011 196.654C349.419 197.342 350.507 198.318 351.275 199.582C352.059 200.846 352.451 202.318 352.451 203.998C352.451 205.678 352.059 207.15 351.275 208.414C350.507 209.678 349.419 210.662 348.011 211.366C346.619 212.054 345.011 212.398 343.187 212.398H335.555V195.598ZM342.995 209.206C344.675 209.206 346.011 208.742 347.003 207.814C348.011 206.87 348.515 205.598 348.515 203.998C348.515 202.398 348.011 201.134 347.003 200.206C346.011 199.262 344.675 198.79 342.995 198.79H339.443V209.206H342.995ZM370.22 212.686C368.508 212.686 366.956 212.318 365.564 211.582C364.188 210.83 363.1 209.798 362.3 208.486C361.516 207.158 361.124 205.662 361.124 203.998C361.124 202.334 361.516 200.846 362.3 199.534C363.1 198.206 364.188 197.174 365.564 196.438C366.956 195.686 368.516 195.31 370.244 195.31C371.7 195.31 373.012 195.566 374.18 196.078C375.364 196.59 376.356 197.326 377.156 198.286L374.66 200.59C373.524 199.278 372.116 198.622 370.436 198.622C369.396 198.622 368.468 198.854 367.652 199.318C366.836 199.766 366.196 200.398 365.732 201.214C365.284 202.03 365.06 202.958 365.06 203.998C365.06 205.038 365.284 205.966 365.732 206.782C366.196 207.598 366.836 208.238 367.652 208.702C368.468 209.15 369.396 209.374 370.436 209.374C372.116 209.374 373.524 208.71 374.66 207.382L377.156 209.686C376.356 210.662 375.364 211.406 374.18 211.918C372.996 212.43 371.676 212.686 370.22 212.686ZM387.566 212.686C385.822 212.686 384.246 212.31 382.838 211.558C381.446 210.806 380.35 209.774 379.55 208.462C378.766 207.134 378.374 205.646 378.374 203.998C378.374 202.35 378.766 200.87 379.55 199.558C380.35 198.23 381.446 197.19 382.838 196.438C384.246 195.686 385.822 195.31 387.566 195.31C389.31 195.31 390.878 195.686 392.27 196.438C393.662 197.19 394.758 198.23 395.558 199.558C396.358 200.87 396.758 202.35 396.758 203.998C396.758 205.646 396.358 207.134 395.558 208.462C394.758 209.774 393.662 210.806 392.27 211.558C390.878 212.31 389.31 212.686 387.566 212.686ZM387.566 209.374C388.558 209.374 389.454 209.15 390.254 208.702C391.054 208.238 391.678 207.598 392.126 206.782C392.59 205.966 392.822 205.038 392.822 203.998C392.822 202.958 392.59 202.03 392.126 201.214C391.678 200.398 391.054 199.766 390.254 199.318C389.454 198.854 388.558 198.622 387.566 198.622C386.574 198.622 385.678 198.854 384.878 199.318C384.078 199.766 383.446 200.398 382.982 201.214C382.534 202.03 382.31 202.958 382.31 203.998C382.31 205.038 382.534 205.966 382.982 206.782C383.446 207.598 384.078 208.238 384.878 208.702C385.678 209.15 386.574 209.374 387.566 209.374ZM399.68 195.598H403.568V209.23H411.992V212.398H399.68V195.598ZM422.019 212.686C420.275 212.686 418.699 212.31 417.291 211.558C415.899 210.806 414.803 209.774 414.003 208.462C413.219 207.134 412.827 205.646 412.827 203.998C412.827 202.35 413.219 200.87 414.003 199.558C414.803 198.23 415.899 197.19 417.291 196.438C418.699 195.686 420.275 195.31 422.019 195.31C423.763 195.31 425.331 195.686 426.723 196.438C428.115 197.19 429.211 198.23 430.011 199.558C430.811 200.87 431.211 202.35 431.211 203.998C431.211 205.646 430.811 207.134 430.011 208.462C429.211 209.774 428.115 210.806 426.723 211.558C425.331 212.31 423.763 212.686 422.019 212.686ZM422.019 209.374C423.011 209.374 423.907 209.15 424.707 208.702C425.507 208.238 426.131 207.598 426.579 206.782C427.043 205.966 427.275 205.038 427.275 203.998C427.275 202.958 427.043 202.03 426.579 201.214C426.131 200.398 425.507 199.766 424.707 199.318C423.907 198.854 423.011 198.622 422.019 198.622C421.027 198.622 420.131 198.854 419.331 199.318C418.531 199.766 417.899 200.398 417.435 201.214C416.987 202.03 416.763 202.958 416.763 203.998C416.763 205.038 416.987 205.966 417.435 206.782C417.899 207.598 418.531 208.238 419.331 208.702C420.131 209.15 421.027 209.374 422.019 209.374ZM444.837 212.398L441.597 207.718H441.405H438.021V212.398H434.133V195.598H441.405C442.893 195.598 444.181 195.846 445.269 196.342C446.373 196.838 447.221 197.542 447.813 198.454C448.405 199.366 448.701 200.446 448.701 201.694C448.701 202.942 448.397 204.022 447.789 204.934C447.197 205.83 446.349 206.518 445.245 206.998L449.013 212.398H444.837ZM444.765 201.694C444.765 200.75 444.461 200.03 443.853 199.534C443.245 199.022 442.357 198.766 441.189 198.766H438.021V204.622H441.189C442.357 204.622 443.245 204.366 443.853 203.854C444.461 203.342 444.765 202.622 444.765 201.694Z" fill="white"/>
<path d="M152.284 76.714C147.148 76.714 142.492 75.61 138.316 73.402C134.188 71.146 130.924 68.05 128.524 64.114C126.172 60.13 124.996 55.642 124.996 50.65C124.996 45.658 126.172 41.194 128.524 37.258C130.924 33.274 134.188 30.178 138.316 27.97C142.492 25.714 147.172 24.586 152.356 24.586C156.724 24.586 160.66 25.354 164.164 26.89C167.716 28.426 170.692 30.634 173.092 33.514L165.604 40.426C162.196 36.49 157.972 34.522 152.932 34.522C149.812 34.522 147.028 35.218 144.58 36.61C142.132 37.954 140.212 39.85 138.82 42.298C137.476 44.746 136.804 47.53 136.804 50.65C136.804 53.77 137.476 56.554 138.82 59.002C140.212 61.45 142.132 63.37 144.58 64.762C147.028 66.106 149.812 66.778 152.932 66.778C157.972 66.778 162.196 64.786 165.604 60.802L173.092 67.714C170.692 70.642 167.716 72.874 164.164 74.41C160.612 75.946 156.652 76.714 152.284 76.714ZM197.273 76.426C193.193 76.426 189.521 75.586 186.257 73.906C183.041 72.178 180.521 69.802 178.697 66.778C176.873 63.754 175.961 60.322 175.961 56.482C175.961 52.642 176.873 49.21 178.697 46.186C180.521 43.162 183.041 40.81 186.257 39.13C189.521 37.402 193.193 36.538 197.273 36.538C201.353 36.538 205.001 37.402 208.217 39.13C211.433 40.81 213.953 43.162 215.777 46.186C217.601 49.21 218.513 52.642 218.513 56.482C218.513 60.322 217.601 63.754 215.777 66.778C213.953 69.802 211.433 72.178 208.217 73.906C205.001 75.586 201.353 76.426 197.273 76.426ZM197.273 67.21C200.153 67.21 202.505 66.25 204.329 64.33C206.201 62.362 207.137 59.746 207.137 56.482C207.137 53.218 206.201 50.626 204.329 48.706C202.505 46.738 200.153 45.754 197.273 45.754C194.393 45.754 192.017 46.738 190.145 48.706C188.273 50.626 187.337 53.218 187.337 56.482C187.337 59.746 188.273 62.362 190.145 64.33C192.017 66.25 194.393 67.21 197.273 67.21ZM226.02 22.426H237.252V75.85H226.02V22.426ZM266.109 76.426C262.029 76.426 258.357 75.586 255.093 73.906C251.877 72.178 249.357 69.802 247.533 66.778C245.709 63.754 244.797 60.322 244.797 56.482C244.797 52.642 245.709 49.21 247.533 46.186C249.357 43.162 251.877 40.81 255.093 39.13C258.357 37.402 262.029 36.538 266.109 36.538C270.189 36.538 273.837 37.402 277.053 39.13C280.269 40.81 282.789 43.162 284.613 46.186C286.437 49.21 287.349 52.642 287.349 56.482C287.349 60.322 286.437 63.754 284.613 66.778C282.789 69.802 280.269 72.178 277.053 73.906C273.837 75.586 270.189 76.426 266.109 76.426ZM266.109 67.21C268.989 67.21 271.341 66.25 273.165 64.33C275.037 62.362 275.973 59.746 275.973 56.482C275.973 53.218 275.037 50.626 273.165 48.706C271.341 46.738 268.989 45.754 266.109 45.754C263.229 45.754 260.853 46.738 258.981 48.706C257.109 50.626 256.173 53.218 256.173 56.482C256.173 59.746 257.109 62.362 258.981 64.33C260.853 66.25 263.229 67.21 266.109 67.21ZM305.584 42.226C306.928 40.354 308.728 38.938 310.984 37.978C313.288 37.018 315.928 36.538 318.904 36.538V46.906C317.656 46.81 316.816 46.762 316.384 46.762C313.168 46.762 310.648 47.674 308.824 49.498C307 51.274 306.088 53.962 306.088 57.562V75.85H294.856V37.114H305.584V42.226ZM127.217 136.714C122.081 136.714 117.425 135.61 113.249 133.402C109.121 131.146 105.857 128.05 103.457 124.114C101.105 120.13 99.9295 115.642 99.9295 110.65C99.9295 105.658 101.105 101.194 103.457 97.258C105.857 93.274 109.121 90.178 113.249 87.97C117.425 85.714 122.105 84.586 127.289 84.586C131.657 84.586 135.593 85.354 139.097 86.89C142.649 88.426 145.625 90.634 148.025 93.514L140.537 100.426C137.129 96.49 132.905 94.522 127.865 94.522C124.745 94.522 121.961 95.218 119.513 96.61C117.065 97.954 115.145 99.85 113.753 102.298C112.409 104.746 111.737 107.53 111.737 110.65C111.737 113.77 112.409 116.554 113.753 119.002C115.145 121.45 117.065 123.37 119.513 124.762C121.961 126.106 124.745 126.778 127.865 126.778C132.905 126.778 137.129 124.786 140.537 120.802L148.025 127.714C145.625 130.642 142.649 132.874 139.097 134.41C135.545 135.946 131.585 136.714 127.217 136.714ZM178.654 96.538C183.454 96.538 187.318 97.978 190.246 100.858C193.222 103.738 194.71 108.01 194.71 113.674V135.85H183.478V115.402C183.478 112.33 182.806 110.05 181.462 108.562C180.118 107.026 178.174 106.258 175.63 106.258C172.798 106.258 170.542 107.146 168.862 108.922C167.182 110.65 166.342 113.242 166.342 116.698V135.85H155.11V82.426H166.342V101.146C167.83 99.658 169.63 98.53 171.742 97.762C173.854 96.946 176.158 96.538 178.654 96.538ZM220.515 96.538C226.515 96.538 231.123 97.978 234.339 100.858C237.555 103.69 239.163 107.986 239.163 113.746V135.85H228.651V131.026C226.539 134.626 222.603 136.426 216.843 136.426C213.867 136.426 211.275 135.922 209.067 134.914C206.907 133.906 205.251 132.514 204.099 130.738C202.947 128.962 202.371 126.946 202.371 124.69C202.371 121.09 203.715 118.258 206.403 116.194C209.139 114.13 213.339 113.098 219.003 113.098H227.931C227.931 110.65 227.187 108.778 225.699 107.482C224.211 106.138 221.979 105.466 219.003 105.466C216.939 105.466 214.899 105.802 212.883 106.474C210.915 107.098 209.235 107.962 207.843 109.066L203.811 101.218C205.923 99.73 208.443 98.578 211.371 97.762C214.347 96.946 217.395 96.538 220.515 96.538ZM219.651 128.866C221.571 128.866 223.275 128.434 224.763 127.57C226.251 126.658 227.307 125.338 227.931 123.61V119.65H220.227C215.619 119.65 213.315 121.162 213.315 124.186C213.315 125.626 213.867 126.778 214.971 127.642C216.123 128.458 217.683 128.866 219.651 128.866ZM260.057 102.226C261.401 100.354 263.201 98.938 265.457 97.978C267.761 97.018 270.401 96.538 273.377 96.538V106.906C272.129 106.81 271.289 106.762 270.857 106.762C267.641 106.762 265.121 107.674 263.297 109.498C261.473 111.274 260.561 113.962 260.561 117.562V135.85H249.329V97.114H260.057V102.226ZM306.375 133.978C305.271 134.794 303.903 135.418 302.271 135.85C300.687 136.234 299.007 136.426 297.231 136.426C292.623 136.426 289.047 135.25 286.503 132.898C284.007 130.546 282.759 127.09 282.759 122.53V106.618H276.783V97.978H282.759V88.546H293.991V97.978H303.639V106.618H293.991V122.386C293.991 124.018 294.399 125.29 295.215 126.202C296.079 127.066 297.279 127.498 298.815 127.498C300.591 127.498 302.103 127.018 303.351 126.058L306.375 133.978ZM325.712 136.426C322.496 136.426 319.352 136.042 316.28 135.274C313.208 134.458 310.76 133.45 308.936 132.25L312.68 124.186C314.408 125.29 316.496 126.202 318.944 126.922C321.392 127.594 323.792 127.93 326.144 127.93C330.896 127.93 333.272 126.754 333.272 124.402C333.272 123.298 332.624 122.506 331.328 122.026C330.032 121.546 328.04 121.138 325.352 120.802C322.184 120.322 319.568 119.77 317.504 119.146C315.44 118.522 313.64 117.418 312.104 115.834C310.616 114.25 309.872 111.994 309.872 109.066C309.872 106.618 310.568 104.458 311.96 102.586C313.4 100.666 315.464 99.178 318.152 98.122C320.888 97.066 324.104 96.538 327.8 96.538C330.536 96.538 333.248 96.85 335.936 97.474C338.672 98.05 340.928 98.866 342.704 99.922L338.96 107.914C335.552 105.994 331.832 105.034 327.8 105.034C325.4 105.034 323.6 105.37 322.4 106.042C321.2 106.714 320.6 107.578 320.6 108.634C320.6 109.834 321.248 110.674 322.544 111.154C323.84 111.634 325.904 112.09 328.736 112.522C331.904 113.05 334.496 113.626 336.512 114.25C338.528 114.826 340.28 115.906 341.768 117.49C343.256 119.074 344 121.282 344 124.114C344 126.514 343.28 128.65 341.84 130.522C340.4 132.394 338.288 133.858 335.504 134.914C332.768 135.922 329.504 136.426 325.712 136.426Z" fill="url(#paint0_linear)"/>
<defs>
<linearGradient id="paint0_linear" x1="108.796" y1="43.2563" x2="337.916" y2="43.6959" gradientUnits="userSpaceOnUse">
<stop offset="0.00730526"/>
<stop offset="0.9999" stop-color="white"/>
<stop offset="1" stop-color="#E5E5E5"/>
</linearGradient>
</defs>
</svg>
