<svg width="210" height="210" viewBox="0 0 210 210" fill="none" xmlns="http://www.w3.org/2000/svg">
<g filter="url(#filter0_d)">
<circle cx="104.575" cy="100.978" r="100.52" fill="url(#paint0_radial)"/>
<circle cx="104.575" cy="100.978" r="100.02" stroke="#6FFFE9" stroke-opacity="0.79"/>
<path d="M41.7948 37.1875L41.2924 37.6855L40.7848 163.475L41.2798 163.977L81.7794 164.38L82.2843 163.885L82.7738 117.589L125.534 117.589L125.543 163.88L126.047 164.38L167.377 163.991L167.872 163.493L168.365 37.9392L167.865 37.4373L126.043 37.4373L125.543 37.9319L125.048 83.7936L82.9429 83.7444V37.8816L82.4453 37.3816L41.7948 37.1875Z" fill="#1C2541" stroke="#6FFFE9" stroke-linejoin="bevel"/>
<path d="M119.354 151.856C120.041 149.243 120.383 146.37 120.383 143.238C120.383 140.07 120.041 137.161 119.354 134.512C118.666 131.861 117.637 129.577 116.257 127.668C114.874 125.755 113.145 124.265 111.074 123.202C108.992 122.134 106.587 121.608 103.872 121.608C101.157 121.608 98.7511 122.134 96.669 123.202C94.5979 124.265 92.8691 125.755 91.4863 127.668C90.1066 129.577 89.0769 131.861 88.389 134.512C87.7019 137.161 87.3606 140.07 87.3606 143.238C87.3606 146.37 87.7019 149.243 88.3894 151.856C89.0773 154.488 90.1071 156.763 91.4863 158.671C92.8691 160.584 94.5979 162.075 96.669 163.137C98.7511 164.205 101.157 164.731 103.872 164.731C106.587 164.731 108.992 164.205 111.074 163.137C113.145 162.075 114.874 160.584 116.257 158.671C117.636 156.763 118.666 154.488 119.354 151.856ZM102.162 128.789C102.648 128.464 103.212 128.296 103.872 128.296C104.53 128.296 105.102 128.463 105.602 128.79C106.041 129.085 106.475 129.711 106.849 130.79C107.218 131.853 107.506 133.375 107.705 135.374C107.903 137.366 108.002 139.986 108.002 143.238C108.002 146.454 107.903 149.046 107.705 151.019C107.507 153 107.218 154.503 106.85 155.547C106.477 156.605 106.043 157.225 105.602 157.521C105.102 157.848 104.53 158.015 103.872 158.015C103.212 158.015 102.648 157.848 102.162 157.523C101.72 157.227 101.286 156.607 100.912 155.547C100.544 154.503 100.255 153 100.057 151.019C99.8594 149.046 99.7595 146.454 99.7595 143.238C99.7595 139.986 99.8594 137.366 100.057 135.374C100.255 133.375 100.544 131.853 100.913 130.79C101.288 129.71 101.722 129.083 102.162 128.789Z" fill="#1C2541" stroke="#6FFFE9"/>
<path d="M90.428 37.1875L89.928 37.6875V76.8445L90.428 77.3445H100.666L101.166 76.8445V63.1415H102.453L106.527 77.0118L107.007 77.3709H118.574L119.047 76.7095L113.637 60.845C115.011 59.7593 116.054 58.3445 116.769 56.6135L116.769 56.6119C117.53 54.7498 117.905 52.6372 117.905 50.2831C117.905 48.3766 117.651 46.6202 117.137 45.0183C116.621 43.4122 115.845 42.023 114.802 40.8595C113.768 39.6924 112.477 38.7897 110.937 38.1484C109.399 37.5028 107.619 37.1875 105.608 37.1875H90.428ZM105.799 47.8868L105.8 47.8893C106.033 48.7172 106.153 49.637 106.153 50.652C106.153 51.6664 106.034 52.5956 105.799 53.4424C105.565 54.2719 105.234 54.9813 104.812 55.5777C104.394 56.1504 103.891 56.5898 103.301 56.9035C102.72 57.2121 102.052 57.3721 101.286 57.3721H101.167L101.183 43.9319H101.286C102.052 43.9319 102.72 44.0919 103.301 44.4005C103.889 44.7129 104.392 45.1595 104.81 45.75L104.81 45.75L104.814 45.7553C105.233 46.3309 105.564 47.0381 105.799 47.8868Z" fill="#1C2541" stroke="#6FFFE9" stroke-linejoin="bevel"/>
</g>
<defs>
<filter id="filter0_d" x="0.0550537" y="0.458008" width="209.04" height="209.04" filterUnits="userSpaceOnUse" color-interpolation-filters="sRGB">
<feFlood flood-opacity="0" result="BackgroundImageFix"/>
<feColorMatrix in="SourceAlpha" type="matrix" values="0 0 0 0 0 0 0 0 0 0 0 0 0 0 0 0 0 0 127 0" result="hardAlpha"/>
<feOffset dy="4"/>
<feGaussianBlur stdDeviation="2"/>
<feComposite in2="hardAlpha" operator="out"/>
<feColorMatrix type="matrix" values="0 0 0 0 0 0 0 0 0 0 0 0 0 0 0 0 0 0 0.25 0"/>
<feBlend mode="normal" in2="BackgroundImageFix" result="effect1_dropShadow"/>
<feBlend mode="normal" in="SourceGraphic" in2="effect1_dropShadow" result="shape"/>
</filter>
<radialGradient id="paint0_radial" cx="0" cy="0" r="1" gradientUnits="userSpaceOnUse" gradientTransform="translate(106.786 109.824) rotate(0.720665) scale(95.9036)">
<stop stop-color="#02B5D1"/>
<stop offset="1" stop-color="#1C2541"/>
</radialGradient>
</defs>
</svg>
