<svg width="210" height="210" viewBox="0 0 210 210" fill="none" xmlns="http://www.w3.org/2000/svg">
<g filter="url(#filter0_d)">
<circle cx="105.475" cy="101.235" r="100.52" fill="url(#paint0_radial)"/>
<circle cx="105.475" cy="101.235" r="100.02" stroke="#48FFE3" stroke-opacity="0.79"/>
<path d="M42.6949 37.4443L42.1925 37.9423L41.6848 163.732L42.1798 164.234L82.6794 164.637L83.1843 164.142L83.6738 117.846L126.434 117.846L126.443 164.137L126.947 164.637L168.277 164.247L168.772 163.749L169.265 38.1961L168.765 37.6941L126.943 37.6941L126.443 38.1887L125.948 84.0505L83.8429 84.0013V38.1385L83.3453 37.6385L42.6949 37.4443Z" fill="#1C2541" stroke="#48FFE3" stroke-linejoin="bevel"/>
<path d="M120.254 152.113C120.941 149.5 121.283 146.627 121.283 143.495C121.283 140.327 120.941 137.417 120.254 134.769C119.566 132.118 118.537 129.834 117.157 127.925C115.774 126.012 114.045 124.521 111.974 123.459C109.892 122.391 107.487 121.865 104.772 121.865C102.057 121.865 99.6511 122.391 97.5691 123.459C95.498 124.521 93.7691 126.012 92.3863 127.925C91.0066 129.834 89.9769 132.118 89.2891 134.769C88.6019 137.417 88.2606 140.327 88.2606 143.495C88.2606 146.627 88.6019 149.5 89.2894 152.112C89.9774 154.745 91.0071 157.02 92.3863 158.928C93.7691 160.841 95.498 162.331 97.5691 163.394C99.6511 164.462 102.057 164.988 104.772 164.988C107.487 164.988 109.892 164.462 111.974 163.394C114.045 162.331 115.774 160.841 117.157 158.928C118.536 157.02 119.566 154.745 120.254 152.113ZM103.062 129.046C103.548 128.721 104.112 128.553 104.772 128.553C105.43 128.553 106.002 128.72 106.502 129.047C106.941 129.342 107.375 129.968 107.749 131.047C108.118 132.11 108.406 133.632 108.605 135.631C108.803 137.623 108.902 140.242 108.902 143.495C108.902 146.711 108.803 149.303 108.605 151.276C108.407 153.257 108.118 154.759 107.75 155.803C107.376 156.862 106.943 157.482 106.502 157.778C106.002 158.105 105.43 158.272 104.772 158.272C104.112 158.272 103.548 158.105 103.062 157.78C102.62 157.484 102.186 156.864 101.812 155.803C101.444 154.759 101.155 153.257 100.957 151.276C100.759 149.303 100.66 146.711 100.66 143.495C100.66 140.242 100.759 137.623 100.957 135.631C101.156 133.632 101.444 132.11 101.813 131.047C102.188 129.967 102.622 129.34 103.062 129.046Z" fill="#1C2541" stroke="#48FFE3"/>
<path d="M91.328 37.4443L90.828 37.9443V77.1013L91.328 77.6013H101.566L102.066 77.1013V63.3984H103.353L107.427 77.2686L107.907 77.6277H119.474L119.947 76.9663L114.537 61.1018C115.911 60.0161 116.954 58.6014 117.669 56.8703L117.669 56.8687C118.43 55.0067 118.805 52.8941 118.805 50.5399C118.805 48.6334 118.551 46.8771 118.037 45.2752C117.521 43.669 116.745 42.2798 115.702 41.1163C114.668 39.9492 113.377 39.0465 111.837 38.4053C110.299 37.7596 108.519 37.4443 106.508 37.4443H91.328ZM106.699 48.1436L106.7 48.1461C106.933 48.9741 107.053 49.8938 107.053 50.9088C107.053 51.9232 106.934 52.8524 106.699 53.6992C106.465 54.5288 106.134 55.2382 105.712 55.8345C105.294 56.4072 104.791 56.8467 104.201 57.1603C103.62 57.4689 102.952 57.6289 102.186 57.6289H102.067L102.083 44.1888H102.186C102.952 44.1888 103.62 44.3488 104.201 44.6573C104.789 44.9697 105.292 45.4163 105.71 46.0068L105.71 46.0069L105.714 46.0121C106.133 46.5878 106.464 47.295 106.699 48.1436Z" fill="#1C2541" stroke="#48FFE3" stroke-linejoin="bevel"/>
</g>
<defs>
<filter id="filter0_d" x="0.955078" y="0.714844" width="209.04" height="209.04" filterUnits="userSpaceOnUse" color-interpolation-filters="sRGB">
<feFlood flood-opacity="0" result="BackgroundImageFix"/>
<feColorMatrix in="SourceAlpha" type="matrix" values="0 0 0 0 0 0 0 0 0 0 0 0 0 0 0 0 0 0 127 0" result="hardAlpha"/>
<feOffset dy="4"/>
<feGaussianBlur stdDeviation="2"/>
<feComposite in2="hardAlpha" operator="out"/>
<feColorMatrix type="matrix" values="0 0 0 0 0 0 0 0 0 0 0 0 0 0 0 0 0 0 0.25 0"/>
<feBlend mode="normal" in2="BackgroundImageFix" result="effect1_dropShadow"/>
<feBlend mode="normal" in="SourceGraphic" in2="effect1_dropShadow" result="shape"/>
</filter>
<radialGradient id="paint0_radial" cx="0" cy="0" r="1" gradientUnits="userSpaceOnUse" gradientTransform="translate(107.686 110.081) rotate(0.720665) scale(95.9036)">
<stop stop-color="#829CFF"/>
<stop offset="1" stop-color="#1C2541"/>
</radialGradient>
</defs>
</svg>
